<svg width="482" height="268" viewBox="0 0 482 268" fill="none" xmlns="http://www.w3.org/2000/svg">
<path d="M393 126.6C393 126.6 415.92 128.87 427.53 143.08C427.53 143.08 439.81 126.62 461.85 126.96C467.236 120.462 470.666 112.568 471.74 104.197C472.813 95.8252 471.487 87.321 467.915 79.6742C464.343 72.0274 458.672 65.5526 451.563 61.0037C444.453 56.4548 436.198 54.019 427.759 53.9797C419.319 53.9405 411.041 56.2996 403.89 60.7822C396.739 65.2648 391.008 71.6866 387.365 79.2999C383.722 86.9131 382.317 95.4046 383.313 103.786C384.308 112.167 387.665 120.092 392.99 126.64L393 126.6Z" fill="#C53F3F"/>
<path opacity="0.5" d="M393 126.6C393 126.6 415.92 128.87 427.53 143.08C427.53 143.08 439.81 126.62 461.85 126.96C467.236 120.462 470.666 112.568 471.74 104.197C472.813 95.8252 471.487 87.321 467.915 79.6742C464.343 72.0274 458.672 65.5526 451.563 61.0037C444.453 56.4548 436.198 54.019 427.759 53.9797C419.319 53.9405 411.041 56.2996 403.89 60.7822C396.739 65.2648 391.008 71.6866 387.365 79.2999C383.722 86.9131 382.317 95.4046 383.313 103.786C384.308 112.167 387.665 120.092 392.99 126.64L393 126.6Z" fill="white"/>
<path d="M426.76 57.12L425.99 205.66H429.86L426.76 57.12Z" fill="#B8B8B8"/>
<path d="M427.93 138.75C427.93 138.75 435.66 124.82 449.59 120.56C449.59 120.56 434.89 124.05 427.59 136.04L427.93 138.75Z" fill="#B8B8B8"/>
<path d="M427.93 99.29C427.93 99.29 435.66 85.36 449.59 81.1C449.59 81.1 434.89 84.58 427.59 96.58L427.93 99.29Z" fill="#B8B8B8"/>
<path d="M427.93 119C427.93 119 435.66 105.07 449.59 100.81C449.59 100.81 434.89 104.3 427.59 116.29L427.93 119Z" fill="#B8B8B8"/>
<path d="M426.78 109.34C426.78 109.34 419.31 95.42 405.87 91.16C405.87 91.16 420.06 94.64 427.15 106.64L426.78 109.34Z" fill="#B8B8B8"/>
<path d="M426.78 128.69C426.78 128.69 419.31 114.76 405.87 110.51C405.87 110.51 420.06 113.99 427.15 125.98L426.78 128.69Z" fill="#B8B8B8"/>
<path d="M17.87 126.6C17.87 126.6 40.79 128.87 52.4 143.08C52.4 143.08 64.68 126.62 86.72 126.96C92.1062 120.462 95.5358 112.568 96.6094 104.197C97.6831 95.8252 96.3567 87.321 92.7846 79.6742C89.2125 72.0274 83.5417 65.5526 76.4326 61.0037C69.3234 56.4548 61.0683 54.019 52.6284 53.9797C44.1885 53.9405 35.9111 56.2996 28.76 60.7822C21.6088 65.2648 15.8781 71.6866 12.2351 79.2999C8.59213 86.9131 7.18673 95.4046 8.18255 103.786C9.17836 112.167 12.5344 120.092 17.86 126.64L17.87 126.6Z" fill="#C53F3F"/>
<path opacity="0.5" d="M17.87 126.6C17.87 126.6 40.79 128.87 52.4 143.08C52.4 143.08 64.68 126.62 86.72 126.96C92.1062 120.462 95.5358 112.568 96.6094 104.197C97.6831 95.8252 96.3567 87.321 92.7846 79.6742C89.2125 72.0274 83.5417 65.5526 76.4326 61.0037C69.3234 56.4548 61.0683 54.019 52.6284 53.9797C44.1885 53.9405 35.9111 56.2996 28.76 60.7822C21.6088 65.2648 15.8781 71.6866 12.2351 79.2999C8.59213 86.9131 7.18673 95.4046 8.18255 103.786C9.17836 112.167 12.5344 120.092 17.86 126.64L17.87 126.6Z" fill="white"/>
<path d="M51.6499 57.12L50.8699 205.66H54.7399L51.6499 57.12Z" fill="#B8B8B8"/>
<path d="M52.81 138.75C52.81 138.75 60.54 124.82 74.47 120.56C74.47 120.56 59.77 124.05 52.47 136.04L52.81 138.75Z" fill="#B8B8B8"/>
<path d="M52.81 99.29C52.81 99.29 60.54 85.36 74.47 81.1C74.47 81.1 59.77 84.58 52.47 96.58L52.81 99.29Z" fill="#B8B8B8"/>
<path d="M52.81 119C52.81 119 60.54 105.07 74.47 100.81C74.47 100.81 59.77 104.3 52.47 116.29L52.81 119Z" fill="#B8B8B8"/>
<path d="M51.66 109.34C51.66 109.34 44.19 95.42 30.75 91.16C30.75 91.16 44.94 94.64 52.03 106.64L51.66 109.34Z" fill="#B8B8B8"/>
<path d="M51.66 128.69C51.66 128.69 44.19 114.76 30.75 110.51C30.75 110.51 44.94 113.99 52.03 125.98L51.66 128.69Z" fill="#B8B8B8"/>
<path d="M299.87 141C299.87 141 318.63 142.85 328.13 154.48C328.13 154.48 338.18 141.01 356.22 141.28C360.626 135.961 363.431 129.5 364.308 122.649C365.184 115.797 364.097 108.838 361.172 102.581C358.247 96.3239 353.605 91.0263 347.786 87.305C341.967 83.5837 335.211 81.5917 328.304 81.5611C321.397 81.5305 314.624 83.4624 308.772 87.1319C302.921 90.8015 298.232 96.0577 295.251 102.289C292.271 108.52 291.122 115.469 291.938 122.328C292.754 129.186 295.501 135.672 299.86 141.03L299.87 141Z" fill="#C53F3F"/>
<path opacity="0.5" d="M299.87 141C299.87 141 318.63 142.85 328.13 154.48C328.13 154.48 338.18 141.01 356.22 141.28C360.626 135.961 363.431 129.5 364.308 122.649C365.184 115.797 364.097 108.838 361.172 102.581C358.247 96.3239 353.605 91.0263 347.786 87.305C341.967 83.5837 335.211 81.5917 328.304 81.5611C321.397 81.5305 314.624 83.4624 308.772 87.1319C302.921 90.8015 298.232 96.0577 295.251 102.289C292.271 108.52 291.122 115.469 291.938 122.328C292.754 129.186 295.501 135.672 299.86 141.03L299.87 141Z" fill="white"/>
<path d="M327.51 84.08L326.88 205.66H330.05L327.51 84.08Z" fill="#B8B8B8"/>
<path d="M328.46 150.9C328.46 150.9 334.8 139.5 346.19 136.01C346.19 136.01 334.19 138.86 328.19 148.68L328.46 150.9Z" fill="#B8B8B8"/>
<path d="M328.46 118.6C328.46 118.6 334.8 107.2 346.19 103.72C346.19 103.72 334.19 106.57 328.19 116.38L328.46 118.6Z" fill="#B8B8B8"/>
<path d="M328.46 134.75C328.46 134.75 334.8 123.35 346.19 119.86C346.19 119.86 334.19 122.71 328.19 132.53L328.46 134.75Z" fill="#B8B8B8"/>
<path d="M327.52 126.83C327.52 126.83 321.41 115.43 310.41 111.95C310.41 111.95 322.02 114.8 327.83 124.61L327.52 126.83Z" fill="#B8B8B8"/>
<path d="M327.52 142.66C327.52 142.66 321.41 131.26 310.41 127.78C310.41 127.78 322.02 130.63 327.83 140.45L327.52 142.66Z" fill="#B8B8B8"/>
<path d="M118.36 141C118.36 141 137.12 142.85 146.62 154.48C146.62 154.48 156.62 141.01 174.71 141.28C179.116 135.961 181.921 129.5 182.798 122.649C183.674 115.797 182.587 108.838 179.662 102.581C176.737 96.3239 172.095 91.0263 166.276 87.305C160.457 83.5837 153.701 81.5917 146.794 81.5611C139.887 81.5305 133.114 83.4624 127.262 87.1319C121.411 90.8015 116.722 96.0577 113.741 102.289C110.761 108.52 109.612 115.469 110.428 122.328C111.244 129.186 113.991 135.672 118.35 141.03L118.36 141Z" fill="#C53F3F"/>
<path opacity="0.5" d="M118.36 141C118.36 141 137.12 142.85 146.62 154.48C146.62 154.48 156.62 141.01 174.71 141.28C179.116 135.961 181.921 129.5 182.798 122.649C183.674 115.797 182.587 108.838 179.662 102.581C176.737 96.3239 172.095 91.0263 166.276 87.305C160.457 83.5837 153.701 81.5917 146.794 81.5611C139.887 81.5305 133.114 83.4624 127.262 87.1319C121.411 90.8015 116.722 96.0577 113.741 102.289C110.761 108.52 109.612 115.469 110.428 122.328C111.244 129.186 113.991 135.672 118.35 141.03L118.36 141Z" fill="white"/>
<path d="M146 84.08L145.37 205.66H148.54L146 84.08Z" fill="#B8B8B8"/>
<path d="M147 150.9C147 150.9 153.34 139.5 164.73 136.01C164.73 136.01 152.73 138.86 146.73 148.68L147 150.9Z" fill="#B8B8B8"/>
<path d="M147 118.6C147 118.6 153.34 107.2 164.73 103.72C164.73 103.72 152.73 106.57 146.73 116.38L147 118.6Z" fill="#B8B8B8"/>
<path d="M147 134.75C147 134.75 153.34 123.35 164.73 119.86C164.73 119.86 152.73 122.71 146.73 132.53L147 134.75Z" fill="#B8B8B8"/>
<path d="M146 126.83C146 126.83 139.9 115.43 128.9 112C128.9 112 140.51 114.85 146.32 124.66L146 126.83Z" fill="#B8B8B8"/>
<path d="M146 142.66C146 142.66 139.89 131.26 128.89 127.78C128.89 127.78 140.5 130.63 146.31 140.45L146 142.66Z" fill="#B8B8B8"/>
<path d="M24.77 206.19H456.31" stroke="#263238" stroke-width="1.04742" stroke-miterlimit="10"/>
<path d="M178.51 18.72C178.51 10.99 182.59 6.57001 190.04 6.57001C197.49 6.57001 201.58 10.99 201.58 18.72V43.86C201.58 51.59 197.5 56.01 190.04 56.01C182.58 56.01 178.51 51.59 178.51 43.86V18.72ZM186.11 44.34C186.11 47.79 187.63 49.1 190.04 49.1C192.45 49.1 193.98 47.79 193.98 44.34V18.24C193.98 14.79 192.46 13.48 190.04 13.48C187.62 13.48 186.11 14.79 186.11 18.24V44.34Z" fill="#263238"/>
<path d="M207.31 18.72C207.31 10.99 211.38 6.57001 218.84 6.57001C226.3 6.57001 230.37 10.99 230.37 18.72V43.86C230.37 51.59 226.29 56.01 218.84 56.01C211.39 56.01 207.31 51.59 207.31 43.86V18.72ZM214.9 44.34C214.9 47.79 216.42 49.1 218.84 49.1C221.26 49.1 222.77 47.79 222.77 44.34V18.24C222.77 14.79 221.25 13.48 218.84 13.48C216.43 13.48 214.9 14.79 214.9 18.24V44.34Z" fill="#263238"/>
<path d="M259.23 19.07V25.35C259.23 33.09 255.5 37.35 247.91 37.35H244.32V55.51H236.72V7.13H247.91C255.5 7.13 259.23 11.34 259.23 19.07ZM244.32 14.07V30.43H247.91C250.32 30.43 251.63 29.33 251.63 25.88V18.63C251.63 15.17 250.32 14.07 247.91 14.07H244.32Z" fill="#263238"/>
<path d="M274.77 6.57001C282.15 6.57001 285.95 10.99 285.95 18.72V20.24H278.77V18.24C278.77 14.79 277.39 13.48 274.97 13.48C272.55 13.48 271.17 14.79 271.17 18.24C271.17 28.18 286.02 30.05 286.02 43.86C286.02 51.59 282.15 56.01 274.7 56.01C267.25 56.01 263.37 51.59 263.37 43.86V40.86H270.55V44.31C270.55 47.76 272.07 49.01 274.49 49.01C276.91 49.01 278.42 47.76 278.42 44.31C278.42 34.37 263.58 32.5 263.58 18.69C263.58 11 267.38 6.57001 274.77 6.57001Z" fill="#263238"/>
<path d="M292.79 44.75L291.79 27.29V7.13H299.39V27.29L298.39 44.75H292.79ZM299.28 48.14V55.46H292V48.14H299.28Z" fill="#263238"/>
<path opacity="0.3" d="M142.59 254.45C142.59 257.45 124.16 259.84 101.41 259.84C78.66 259.84 60.23 257.43 60.23 254.45C60.23 251.47 78.67 249.06 101.41 249.06C124.15 249.06 142.59 251.48 142.59 254.45Z" fill="black"/>
<path opacity="0.3" d="M228.8 254.45C228.8 257.45 210.36 259.84 187.62 259.84C164.88 259.84 146.44 257.43 146.44 254.45C146.44 251.47 164.88 249.06 187.62 249.06C210.36 249.06 228.8 251.48 228.8 254.45Z" fill="black"/>
<path opacity="0.3" d="M343 254.45C343 257.45 324.57 259.84 301.83 259.84C279.09 259.84 260.65 257.43 260.65 254.45C260.65 251.47 279.08 249.06 301.83 249.06C324.58 249.06 343 251.48 343 254.45Z" fill="black"/>
<path opacity="0.3" d="M438.4 254.45C438.4 257.45 419.96 259.84 397.22 259.84C374.48 259.84 356 257.43 356 254.45C356 251.47 374.44 249.06 397.18 249.06C419.92 249.06 438.4 251.48 438.4 254.45Z" fill="black"/>
<path d="M306.28 96.77C306.28 96.77 304.59 103.77 304.59 104.95C304.589 105.68 304.508 106.408 304.35 107.12C304.35 107.12 300.74 111.45 301.22 112.65C301.803 113.583 302.639 114.332 303.63 114.81C303.63 114.81 305.55 121.81 307.48 122.27C309.462 122.64 311.466 122.881 313.48 122.99L314.2 128.76L323.82 127.32L321.42 118.66L322.42 111.2C322.42 111.2 324.1 108.08 322.42 103.03C320.74 97.98 317.13 97.74 314.72 97.74C311.892 97.5609 309.075 97.2371 306.28 96.77Z" fill="white" stroke="#263238" stroke-width="1.04742" stroke-linecap="round" stroke-linejoin="round"/>
<path d="M310.61 93.17C310.61 93.17 302.19 92.92 302.43 95.09C302.67 97.26 311.33 100.09 311.33 100.09C311.33 100.09 308.44 102.01 309.88 103.94C311.32 105.87 314.69 107.55 314.69 107.55C314.69 107.55 313.69 111.64 315.18 111.88C316.67 112.12 317.58 109.95 317.82 109.23C318.06 108.51 320.71 108.75 321.43 110.67C321.837 111.668 322.08 112.725 322.15 113.8C322.15 113.8 325.04 105.14 325.52 101.29C326 97.44 315.18 93.17 310.61 93.17Z" fill="#263238" stroke="#263238" stroke-width="1.04742" stroke-linecap="round" stroke-linejoin="round"/>
<path d="M315.94 112C315.94 112 318.85 105.6 320.59 108.75C322.33 111.9 321.59 115.18 319.88 115.53C318.17 115.88 316.74 116.22 316.74 116.22" fill="white"/>
<path d="M315.94 112C315.94 112 318.85 105.6 320.59 108.75C322.33 111.9 321.59 115.18 319.88 115.53C318.17 115.88 316.74 116.22 316.74 116.22" stroke="#263238" stroke-width="1.04742" stroke-linecap="round" stroke-linejoin="round"/>
<path d="M304.11 178.79C303.64 179.34 295.93 195.87 294.97 201.4C294.01 206.93 287.76 239.89 287.51 241.33C287.26 242.77 274.05 245.66 273.08 245.9C272.11 246.14 274.08 248.79 276.93 249.51C279.78 250.23 288 253.6 289.93 251.67C291.86 249.74 294.5 238.92 295.22 237.72C295.94 236.52 309.48 204.62 309.48 204.62C309.48 204.62 316.42 189.31 317.86 187.86C319.3 186.41 316.15 180 314.94 178.07C313.73 176.14 307.48 174.94 304.11 178.79Z" fill="#263238" stroke="#263238" stroke-width="1.04742" stroke-linecap="round" stroke-linejoin="round"/>
<path d="M302.67 179C302.67 179 306.04 195.12 307.72 200.89C309.292 205.736 311.658 210.288 314.72 214.36C316.65 217.01 326.03 240.36 326.03 240.36L327.47 243.97C327.47 243.97 326.99 245.41 324.35 247.33C321.71 249.25 314.24 252.38 316.17 253.11C318.1 253.84 325.79 253.83 329.4 253.59C332.508 253.37 335.422 251.997 337.57 249.74C339.02 248.05 335.17 243.24 335.17 242.28C335.17 241.32 326.75 211.98 326.27 210.53C325.79 209.08 323.38 198.75 323.38 198.75V187C323.38 187 324.59 184.84 324.59 180C324.59 175.16 320.98 174.22 320.98 174.22L301.25 176.15L302.67 179Z" fill="#263238" stroke="#263238" stroke-width="1.04742" stroke-linecap="round" stroke-linejoin="round"/>
<path d="M301 177.59C301 177.59 301.49 181.68 302.93 181.92C304.37 182.16 319.28 186.25 325.78 181.44C325.78 181.44 326.98 177.83 326.26 176.87C325.54 175.91 323.85 176.39 315.2 176.39C306.55 176.39 301 176.39 301 177.59Z" fill="#C53F3F" stroke="#263238" stroke-width="1.04742" stroke-linecap="round" stroke-linejoin="round"/>
<path d="M323.11 123.71C323.11 123.71 314.21 124.91 310.36 128.71C306.51 132.51 303.15 139.54 301.47 146.03C299.79 152.52 298.58 176.34 300.98 177.54C303.38 178.74 323.59 179.95 326.98 178.54C330.37 177.13 326.74 165.79 326.74 161.46C326.74 157.13 330.59 142.46 329.87 134.29C329.15 126.12 323.11 123.71 323.11 123.71Z" fill="#C53F3F" stroke="#263238" stroke-width="1.04742" stroke-linecap="round" stroke-linejoin="round"/>
<path d="M291 148.71C290.89 138.81 286.85 130.36 281.48 126.71V124.71L266.68 124.86C258.35 124.95 251.68 135.86 251.85 149.16C252.02 162.46 258.85 173.23 267.19 173.16L281.99 173.01V171.01C287.19 167.14 291.05 158.61 291 148.71Z" fill="#263238" stroke="#263238" stroke-width="1.04742" stroke-linecap="round" stroke-linejoin="round"/>
<path d="M297.64 148.64C297.53 138.24 293.52 129.36 287.88 125.5V123.37L281.54 123.44C272.78 123.53 265.81 134.96 265.96 148.97C266.11 162.98 273.32 174.26 282.08 174.17L288.42 174.1V171.98C293.93 168 297.75 159 297.64 148.64Z" fill="white" stroke="#263238" stroke-width="1.04742" stroke-linecap="round" stroke-linejoin="round"/>
<path d="M304 148.57C304.15 162.57 297.17 174.01 288.42 174.1C279.67 174.19 272.42 162.91 272.3 148.91C272.18 134.91 279.13 123.47 287.88 123.37C296.63 123.27 303.83 134.56 304 148.57Z" fill="#737373" stroke="#263238" stroke-width="1.04742" stroke-linecap="round" stroke-linejoin="round"/>
<path d="M300.36 148.14C300.43 154.77 297.12 160.19 292.97 160.24C288.82 160.29 285.4 154.93 285.33 148.24C285.26 141.55 288.57 136.24 292.72 136.14C296.87 136.04 300.29 141.5 300.36 148.14Z" fill="#263238" stroke="#263238" stroke-width="1.04742" stroke-linecap="round" stroke-linejoin="round"/>
<path d="M418.2 198C419.026 191.836 419.377 185.618 419.25 179.4C416 180.9 397.04 181.45 395.3 181.49C393.56 181.53 374.6 180.9 371.35 179.4C371.207 185.616 371.541 191.835 372.35 198C373.66 206.11 385.18 238.58 385.44 240.15C385.777 241.664 386.215 243.154 386.75 244.61C386.75 244.61 380.2 249.32 377.32 251.15C374.44 252.98 376.54 253.77 379.42 253.77C382.3 253.77 388.32 252.98 390.15 252.98C391.77 252.98 394.59 251.57 395.25 251.23C395.91 251.57 398.73 252.98 400.34 252.98C402.18 252.98 408.2 253.77 411.08 253.77C413.96 253.77 416.08 252.98 413.18 251.15C410.28 249.32 403.75 244.61 403.75 244.61C404.285 243.154 404.723 241.664 405.06 240.15C405.37 238.55 416.89 206.08 418.2 198Z" fill="#263238" stroke="#263238" stroke-width="1.04742" stroke-linecap="round" stroke-linejoin="round"/>
<path d="M391.34 128.49C391.34 128.49 381.21 131.8 375.98 135.12C370.75 138.44 365.5 156.42 365.5 157.12C365.199 158.373 364.791 159.597 364.28 160.78C364.28 160.78 359.04 159.56 358 163.92C356.96 168.28 363.23 173.87 366.55 174.05C369.87 174.23 370.91 173.18 370.91 173.18C370.91 173.18 368.82 177.37 369.69 179.11C370.56 180.85 377.9 187.32 392.39 187.11C406.88 186.9 417.39 184.49 418.92 182.4C420.45 180.31 420.67 175.94 420.67 175.94C420.67 175.94 426.08 174.54 428 171.05C429.92 167.56 429.57 163.89 428.52 160.23C427.47 156.57 422.06 145.94 418.4 140C414.74 134.06 407.05 130.75 403.4 129.7C399.75 128.65 393.78 128.49 391.34 128.49Z" fill="#C53F3F" stroke="#263238" stroke-width="1.04742" stroke-linecap="round" stroke-linejoin="round"/>
<path d="M394.41 143.19C395.86 142.71 400.41 138.67 402.16 134.63C402.852 133.083 403.34 131.453 403.61 129.78L403.38 129.71C399.72 128.66 393.78 128.49 391.38 128.49C391.38 128.49 389.26 129.18 386.46 130.25C386.477 132.412 386.884 134.553 387.66 136.57C389.24 140.61 393 143.68 394.41 143.19Z" fill="white" stroke="#263238" stroke-width="1.04742" stroke-linecap="round" stroke-linejoin="round"/>
<path d="M411.06 151.35C411.06 151.35 415.25 173.7 420 176" stroke="#263238" stroke-width="1.04742" stroke-linecap="round" stroke-linejoin="round"/>
<path d="M370.91 173.18C370.91 173.18 376.15 153.45 376.5 151.53" stroke="#263238" stroke-width="1.04742" stroke-linecap="round" stroke-linejoin="round"/>
<path d="M417.83 161.45C417.83 161.45 414.93 162.1 414.93 164.2" stroke="#263238" stroke-width="1.04742" stroke-linecap="round" stroke-linejoin="round"/>
<path d="M368.56 161.77C368.56 161.77 371.79 163.87 371.47 167.1" stroke="#263238" stroke-width="1.04742" stroke-linecap="round" stroke-linejoin="round"/>
<path d="M390.2 253C391.82 253 394.64 251.59 395.3 251.25C395.96 251.59 398.78 253 400.39 253C402.23 253 408.25 253.79 411.13 253.79C414.01 253.79 416.13 253 413.23 251.17C410.72 249.58 405.46 245.82 404.12 244.86C401.03 247.68 394.92 246.98 394.92 246.98C393.682 246.793 392.457 246.533 391.25 246.2C389.42 245.67 386.8 244.63 386.8 244.63C386.8 244.63 380.25 249.34 377.37 251.17C374.49 253 376.59 253.79 379.47 253.79C382.35 253.79 388.37 253 390.2 253Z" fill="#C53F3F" stroke="#263238" stroke-width="1.04742" stroke-linecap="round" stroke-linejoin="round"/>
<path d="M394.92 244.67V199.01" stroke="white" stroke-width="1.04742" stroke-linecap="round" stroke-linejoin="round"/>
<path d="M395.3 251.2L394.92 246.93V244.67" stroke="#263238" stroke-width="1.04742" stroke-linecap="round" stroke-linejoin="round"/>
<path d="M391.25 197.44H398.84" stroke="white" stroke-width="1.04742" stroke-linecap="round" stroke-linejoin="round"/>
<path d="M381.33 102.29C381.33 102.29 375.89 105.55 376.7 108.41C377.51 111.27 379.97 111.82 379.43 113.41C378.89 115 377 116 379.15 117C380.374 117.548 381.655 117.961 382.97 118.23C382.97 118.23 384.97 125.17 388.41 126.39C391.85 127.61 397.81 126.8 402.03 126.26C403.455 126.121 404.805 125.55 405.898 124.625C406.991 123.699 407.777 122.463 408.15 121.08C408.56 119.59 406.38 121.36 405.29 119.72C404.2 118.08 405.84 113.87 407.06 110.19C408.28 106.51 404.61 99.57 399.85 97.26C395.09 94.95 386 96.16 381.33 102.29Z" fill="#263238" stroke="#263238" stroke-width="1.04742" stroke-linecap="round" stroke-linejoin="round"/>
<path d="M390.47 126C389.778 128.283 389.309 130.627 389.07 133C388.89 136 391.34 139.29 393.96 139.11C396.58 138.93 398.84 133.7 399.19 131.11C399.54 128.52 398.32 121.51 398.32 121.51C398.32 121.51 394.32 121.69 392.73 123.08C391.796 123.899 391.029 124.891 390.47 126Z" fill="white" stroke="#263238" stroke-width="1.04742" stroke-linecap="round" stroke-linejoin="round"/>
<path d="M386.92 106.1C386.92 106.1 387.05 110.18 391.14 114.1C393.599 116.478 396.514 118.332 399.71 119.55C399.639 120.444 399.409 121.317 399.03 122.13C398.852 122.47 398.575 122.747 398.236 122.926C397.897 123.105 397.511 123.176 397.13 123.13H395.76C395.76 123.13 393.76 127.82 391.34 128.5C388.92 129.18 382.97 128.71 382.15 122.72C381.33 116.73 381.2 111.83 381.88 110.6C382.56 109.37 386.92 106.1 386.92 106.1Z" fill="white" stroke="#263238" stroke-width="1.04742" stroke-linecap="round" stroke-linejoin="round"/>
<path d="M429.71 158.8C430.33 157.549 430.707 156.192 430.82 154.8C430.82 152.98 427.44 150.37 426.82 149.72C426.2 149.07 425.58 149.14 425.45 150.05C425.448 150.561 425.551 151.067 425.752 151.536C425.954 152.006 426.249 152.429 426.62 152.78C427.127 153.18 427.494 153.729 427.67 154.35C427.73 154.8 426.55 157.01 427.14 158.44C427.73 159.87 429.39 160.3 429.71 158.8Z" fill="white" stroke="#263238" stroke-width="1.04742" stroke-linecap="round" stroke-linejoin="round"/>
<path d="M294.28 148.59C294.28 148.59 309 153.3 317.85 164.3C326.7 175.3 332.51 173.72 343.51 170.06C354.51 166.4 358.7 153.3 373.89 164.3C389.08 175.3 392.22 179.48 404.79 173.2C417.36 166.92 424.16 151.73 435.69 156.96C447.22 162.19 441.97 188.96 443.02 201.96C444.07 214.96 442.49 247.53 445.11 251.72C447.73 255.91 474.44 252.72 474.44 252.72" stroke="#263238" stroke-width="3.14226" stroke-linecap="round" stroke-linejoin="round"/>
<path d="M321.85 131.11C321.85 131.11 318.92 126.33 314.6 127.58C310.03 128.9 307.67 135.43 306.6 139.5C305.53 143.57 304.81 147.97 302.85 151.76C302.85 151.76 294.19 151.61 289.36 150.21C285.675 149.061 282.05 147.726 278.5 146.21C278.5 146.21 276.79 143.82 275.58 143.35C274.37 142.88 271.23 141.96 271 142.68C270.77 143.4 274.64 145.77 274.64 145.77C274.64 145.77 267.44 146.77 266.72 147.54C266 148.31 271.81 150.61 271.81 150.61C271.81 150.61 273.98 151.31 279.26 150.05C279.26 150.05 298.63 162.35 302.49 163.76C306.35 165.17 308.49 165.62 311.12 160.54C313.75 155.46 322.48 142.86 323.87 137.79" fill="#C53F3F"/>
<path d="M321.85 131.11C321.85 131.11 318.92 126.33 314.6 127.58C310.03 128.9 307.67 135.43 306.6 139.5C305.53 143.57 304.81 147.97 302.85 151.76C302.85 151.76 294.19 151.61 289.36 150.21C285.675 149.061 282.05 147.726 278.5 146.21C278.5 146.21 276.79 143.82 275.58 143.35C274.37 142.88 271.23 141.96 271 142.68C270.77 143.4 274.64 145.77 274.64 145.77C274.64 145.77 267.44 146.77 266.72 147.54C266 148.31 271.81 150.61 271.81 150.61C271.81 150.61 273.98 151.31 279.26 150.05C279.26 150.05 298.63 162.35 302.49 163.76C306.35 165.17 308.49 165.62 311.12 160.54C313.75 155.46 322.48 142.86 323.87 137.79" stroke="#263238" stroke-width="1.04742" stroke-linecap="round" stroke-linejoin="round"/>
<path d="M283.53 148.25C280.7 147.19 278.53 146.25 278.53 146.25C278.53 146.25 276.82 143.86 275.61 143.39C274.4 142.92 271.26 142 271.03 142.72C270.8 143.44 274.67 145.81 274.67 145.81C274.67 145.81 267.47 146.81 266.75 147.58C266.03 148.35 271.84 150.65 271.84 150.65C271.84 150.65 274.01 151.35 279.29 150.09L282 151.8L283.53 148.25Z" fill="white" stroke="#263238" stroke-width="1.04742" stroke-linecap="round" stroke-linejoin="round"/>
<path d="M358.19 160.64C357.57 159.389 357.193 158.032 357.08 156.64C357.08 154.82 360.47 152.22 361.08 151.57C361.69 150.92 362.31 150.99 362.44 151.9C362.442 152.411 362.339 152.917 362.138 153.386C361.937 153.856 361.641 154.279 361.27 154.63C360.763 155.03 360.396 155.579 360.22 156.2C360.16 156.64 361.34 158.86 360.75 160.29C360.16 161.72 358.51 162.13 358.19 160.64Z" fill="white" stroke="#263238" stroke-width="1.04742" stroke-linecap="round" stroke-linejoin="round"/>
<path d="M360.52 155.15C360.52 155.15 357.73 160.3 359.35 162.15C360.97 164 362.54 157.99 362.84 156.33C363.14 154.67 361.55 153 360.52 155.15Z" fill="white" stroke="#263238" stroke-width="1.04742" stroke-linecap="round" stroke-linejoin="round"/>
<path d="M362.82 157C362.82 157 360.03 162.15 361.65 164C363.27 165.85 364.84 159.84 365.14 158.18C365.44 156.52 363.85 154.79 362.82 157Z" fill="white" stroke="#263238" stroke-width="1.04742" stroke-linecap="round" stroke-linejoin="round"/>
<path d="M365.35 157.43C365.35 157.43 362.56 162.58 364.18 164.43C365.8 166.28 367.37 160.27 367.67 158.61C367.97 156.95 366.38 155.27 365.35 157.43Z" fill="white" stroke="#263238" stroke-width="1.04742" stroke-linecap="round" stroke-linejoin="round"/>
<path d="M368.59 157.47C368.59 157.47 365.99 161.47 367.41 162.98C368.83 164.49 370.36 159.74 370.66 158.37C370.96 157 369.55 155.67 368.59 157.47Z" fill="white" stroke="#263238" stroke-width="1.04742" stroke-linecap="round" stroke-linejoin="round"/>
<path d="M427.85 155.35C427.85 155.35 430.64 160.5 429.02 162.35C427.4 164.2 425.83 158.18 425.53 156.52C425.23 154.86 426.82 153.19 427.85 155.35Z" fill="white" stroke="#263238" stroke-width="1.04742" stroke-linecap="round" stroke-linejoin="round"/>
<path d="M425.55 157.15C425.55 157.15 428.34 162.3 426.72 164.15C425.1 166 423.53 159.98 423.23 158.32C422.93 156.66 424.52 155 425.55 157.15Z" fill="white" stroke="#263238" stroke-width="1.04742" stroke-linecap="round" stroke-linejoin="round"/>
<path d="M423 157.63C423 157.63 425.79 162.78 424.17 164.63C422.55 166.48 420.98 160.47 420.69 158.8C420.4 157.13 422 155.47 423 157.63Z" fill="white" stroke="#263238" stroke-width="1.04742" stroke-linecap="round" stroke-linejoin="round"/>
<path d="M419.78 157.67C419.78 157.67 422.38 161.72 420.96 163.18C419.54 164.64 418.01 159.94 417.72 158.57C417.43 157.2 418.82 155.87 419.78 157.67Z" fill="white" stroke="#263238" stroke-width="1.04742" stroke-linecap="round" stroke-linejoin="round"/>
<path d="M75.72 214.65V220.33C73.7489 222.484 72.3315 225.086 71.59 227.91C70.38 232.55 66.59 252.52 67.59 253.04C68.59 253.56 78 255.71 81 255.26C84.44 254.74 87.37 254.92 85.64 253.02C83.91 251.12 74.82 245.81 74.82 245.81C74.82 245.81 84.82 231.35 87.04 226.01C89.26 220.67 89.62 212.41 89.62 212.41L76.2 211.9L75.72 214.65Z" fill="white" stroke="#263238" stroke-width="1.04742" stroke-linecap="round" stroke-linejoin="round"/>
<path d="M81 255.26C84.44 254.74 87.37 254.92 85.64 253.02C83.91 251.12 74.82 245.81 74.82 245.81L74.48 247.87L67.93 247.07C67.45 250.41 67.24 252.86 67.59 253.07C68.66 253.55 78 255.71 81 255.26Z" fill="#263238" stroke="#263238" stroke-width="1.04742" stroke-linecap="round" stroke-linejoin="round"/>
<path d="M108.6 217.59L110.15 220.35C109.508 221.589 109.13 222.948 109.04 224.34C108.951 225.733 109.151 227.129 109.63 228.44C111.18 233.26 114.8 250.99 114.8 252.02C114.8 253.05 117.03 253.74 118.8 253.74C120.57 253.74 125.47 254.08 126.16 254.08C126.85 254.08 131.84 254.94 133.56 253.91C135.28 252.88 131.37 250.81 128.79 249.61C126.21 248.41 120.53 245.31 120.53 245.31C120.53 245.31 121.9 231.19 121.9 224.99C121.9 218.79 123.28 216.73 121.39 212.94C119.5 209.15 107.62 214.67 107.62 214.67L108.6 217.59Z" fill="white" stroke="#263238" stroke-width="1.04742" stroke-linecap="round" stroke-linejoin="round"/>
<path d="M128.74 249.61C126.16 248.4 120.48 245.31 120.48 245.31L119.79 247.89L114.26 248.89C114.59 250.61 114.8 251.79 114.8 252.03C114.8 253.03 117.03 253.75 118.8 253.75C120.57 253.75 125.47 254.09 126.16 254.09C126.85 254.09 131.84 254.95 133.56 253.92C135.28 252.89 131.32 250.81 128.74 249.61Z" fill="#263238" stroke="#263238" stroke-width="1.04742" stroke-linecap="round" stroke-linejoin="round"/>
<path d="M99.3301 103C97.9807 100.694 96.4385 98.5061 94.7201 96.46C92.3501 93.79 84.9201 93.94 81.6601 97.46C78.4001 100.98 79.4301 107.26 80.6601 109.04C81.8901 110.82 84.3701 119.14 84.3701 119.14L84.9601 125.08L98.7701 129.98L95.9501 120.33C95.9501 120.33 101.3 119.33 101.74 117.66C102.18 115.99 100.85 110.38 100.85 110.38C100.85 110.38 102.63 109.19 102.48 108.15C102.33 107.11 99.3301 103 99.3301 103Z" fill="white" stroke="#263238" stroke-width="1.04742" stroke-linecap="round" stroke-linejoin="round"/>
<path d="M83.44 109.4C83.44 109.4 85.8 111.4 87.09 109.11C88.38 106.82 89.36 104.58 89.36 102.64C89.36 100.7 84.51 99.09 87.74 97.79C90.97 96.49 93.3 99.38 94.74 96.48C96.18 93.58 94.87 93.27 87.11 93.27C79.35 93.27 75.47 97.15 77.11 102C78.4216 105.582 80.0445 109.042 81.96 112.34L83.44 109.4Z" fill="#263238" stroke="#263238" stroke-width="1.04742" stroke-linecap="round" stroke-linejoin="round"/>
<path d="M99.7701 106.43C99.7701 107.164 99.5525 107.881 99.1449 108.491C98.7372 109.101 98.1578 109.577 97.4799 109.858C96.8019 110.138 96.056 110.212 95.3363 110.069C94.6166 109.926 93.9556 109.572 93.4367 109.053C92.9179 108.535 92.5645 107.873 92.4214 107.154C92.2782 106.434 92.3517 105.688 92.6325 105.01C92.9133 104.332 93.3888 103.753 93.9989 103.345C94.609 102.938 95.3263 102.72 96.0601 102.72C97.044 102.72 97.9877 103.111 98.6835 103.807C99.3792 104.502 99.7701 105.446 99.7701 106.43Z" stroke="#263238" stroke-width="1.04742" stroke-linecap="round" stroke-linejoin="round"/>
<path d="M99.23 103.14C99.6617 102.963 100.123 102.872 100.59 102.87C101.362 102.871 102.113 103.129 102.723 103.603C103.333 104.076 103.769 104.739 103.963 105.487C104.156 106.235 104.096 107.026 103.791 107.736C103.487 108.446 102.955 109.035 102.28 109.41" stroke="#263238" stroke-width="1.04742" stroke-linecap="round" stroke-linejoin="round"/>
<path d="M92.3499 106.43L83.4399 109.4" stroke="#263238" stroke-width="1.04742" stroke-linecap="round" stroke-linejoin="round"/>
<path d="M86 111.33C86 111.33 84.22 107.62 82.44 108.33C80.66 109.04 81.55 114.87 83.33 115.46C83.9281 115.595 84.5498 115.584 85.1431 115.429C85.7364 115.274 86.2839 114.98 86.74 114.57C86.74 114.57 88.23 117.69 90.01 118.57" fill="white"/>
<path d="M86 111.33C86 111.33 84.22 107.62 82.44 108.33C80.66 109.04 81.55 114.87 83.33 115.46C83.9281 115.595 84.5498 115.584 85.1431 115.429C85.7364 115.274 86.2839 114.98 86.74 114.57C86.74 114.57 88.23 117.69 90.01 118.57" stroke="#263238" stroke-width="1.04742" stroke-linecap="round" stroke-linejoin="round"/>
<path d="M74.3199 178L73.2099 192.22L69.8899 213.27C69.8899 213.27 77.6499 219.36 84.8899 219.36C92.1299 219.36 94.1199 218.44 94.1199 218.44L98.1799 196.84L102.24 219.55C102.24 219.55 110.24 218.26 115.54 216.96C119.225 215.934 122.718 214.313 125.88 212.16L115.17 184.28L112.85 169.9C112.85 169.9 100.85 171.01 93.6399 171.38C86.4299 171.75 76.8399 169.9 76.8399 169.9L74.3199 178Z" fill="#C53F3F" stroke="#263238" stroke-width="1.04742" stroke-linecap="round" stroke-linejoin="round"/>
<path d="M81.9299 121.18C81.9299 121.18 98.9299 127.11 104.18 132.87C107.08 136.07 110.33 157.97 111.5 163.32C112.67 168.67 114.71 179.32 114.71 179.32C114.71 179.32 104.34 184 96.3199 184.17C88.2999 184.34 72.9099 180.66 72.9099 180.66C72.9099 180.66 74.7399 156.93 74.7399 145.9C74.7399 134.87 74.9099 127.67 76.7399 124.16C76.7499 124.19 79.7599 120.84 81.9299 121.18Z" fill="#263238" stroke="#263238" stroke-width="1.04742" stroke-linecap="round" stroke-linejoin="round"/>
<path d="M77.4599 182.38C77.4599 182.38 78.3799 197.89 77.4599 203.62C76.8139 207.317 75.6982 210.916 74.1399 214.33" stroke="#263238" stroke-width="1.04742" stroke-linecap="round" stroke-linejoin="round"/>
<path d="M77.8301 189.77C79.2186 189.293 80.4593 188.464 81.4305 187.363C82.4017 186.262 83.0701 184.927 83.3701 183.49" stroke="#263238" stroke-width="1.04742" stroke-linecap="round" stroke-linejoin="round"/>
<path d="M70.8101 210.27C70.8101 210.27 80.0501 218.21 94.4501 215.27" stroke="#263238" stroke-width="1.04742" stroke-linecap="round" stroke-linejoin="round"/>
<path d="M101.84 214.88C101.84 214.88 116.98 213.22 123.63 208.79" stroke="#263238" stroke-width="1.04742" stroke-linecap="round" stroke-linejoin="round"/>
<path d="M169.56 114C169.56 114 168.1 115.08 163.01 118.8C157.92 122.52 161.93 128.14 161.93 128.14C161.93 128.14 158.29 128.71 153.43 133.82C148.57 138.93 155.6 147.7 162.17 149.07C168.74 150.44 176.42 142.31 178.72 134.77C181.02 127.23 177.98 115.86 176.45 113.51C174.92 111.16 169.56 114 169.56 114Z" fill="#263238" stroke="#263238" stroke-width="1.04742" stroke-linecap="round" stroke-linejoin="round"/>
<path d="M188.84 113C188.84 113 191.37 109.09 189.08 103.42C186.79 97.7501 179.95 95.1601 173.29 99.2701C171.07 100.591 169.348 102.607 168.392 105.007C167.435 107.406 167.298 110.054 168 112.54C168.65 115.16 171.93 119.19 172.62 119.25C173.31 119.31 179.3 121.49 183.39 119.58C187.48 117.67 188.84 113 188.84 113Z" fill="#263238" stroke="#263238" stroke-width="1.04742" stroke-linecap="round" stroke-linejoin="round"/>
<path d="M159.41 245C159.41 245 164.16 252.39 172.41 253.65C180.66 254.91 173.24 247.51 171.85 246.39C170.46 245.27 160.53 242.85 159.41 245Z" fill="#737373" stroke="#263238" stroke-width="1.04742" stroke-linecap="round" stroke-linejoin="round"/>
<path d="M203.36 246.9C203.36 246.9 212.43 249.13 211.73 251.09C211.03 253.05 203.64 252.9 199.32 251.78C195 250.66 190.94 248.99 191.5 247.18C192.06 245.37 203.36 246.9 203.36 246.9Z" fill="#737373" stroke="#263238" stroke-width="1.04742" stroke-linecap="round" stroke-linejoin="round"/>
<path d="M177.57 127.7C177.57 127.7 165.43 129.48 163.21 133.77C160.99 138.06 164.12 161.43 164.12 161.43C164.12 161.43 158.94 172.86 158.87 180.22C158.8 187.58 162.08 200.53 161.82 203.76C161.56 206.99 158.24 243.76 158.24 244.76C158.24 245.76 165.24 248 175.33 249.2C185.42 250.4 204.72 246.81 204.72 246.81C204.72 246.81 204.34 225.11 205.35 212.17C206.36 199.23 204.92 187.6 202.35 182.77C199.78 177.94 187.81 160.55 187.81 160.55C187.81 160.55 193.61 150.03 193.97 145.43C194.33 140.83 192.46 138.43 188.08 133.14C186.778 131.58 185.178 130.295 183.373 129.36C181.569 128.426 179.596 127.862 177.57 127.7Z" fill="#C53F3F" stroke="#263238" stroke-width="1.04742" stroke-linecap="round" stroke-linejoin="round"/>
<path d="M187.84 160.56C187.84 160.56 193.64 150.04 194 145.44C194.36 140.84 192.49 138.44 188.11 133.15C187.9 132.89 187.68 132.66 187.46 132.42L187.3 132.57C182.8 139.92 167.92 152.48 163.49 156.14C163.83 159.27 164.12 161.43 164.12 161.43C164.12 161.43 158.94 172.86 158.87 180.22C158.953 183.574 159.287 186.916 159.87 190.22C170.38 184.22 184.44 172.99 192.05 166.73C189.67 163.21 187.84 160.56 187.84 160.56Z" fill="#737373" stroke="#263238" stroke-width="1.04742" stroke-linecap="round" stroke-linejoin="round"/>
<path d="M175.33 119.12C175.666 121.864 175.849 124.625 175.88 127.39C175.72 129.44 176.38 134.12 179.88 135.59C183.38 137.06 185.58 135.01 185.57 132.95C185.443 131.249 185.107 129.569 184.57 127.95L184.67 122.3C184.67 122.3 178.63 118.52 175.33 119.12Z" fill="white" stroke="#263238" stroke-width="1.04742" stroke-linecap="round" stroke-linejoin="round"/>
<path d="M172.19 115.45C172.19 115.45 169.62 113.19 169.54 116.45C169.46 119.71 172.46 120.79 173.12 121.01C173.677 121.086 174.242 120.946 174.7 120.62C174.7 120.62 179.36 124.62 183.1 124.88C186.84 125.14 188.36 123.41 189.24 116.62C190.12 109.83 183.11 102.94 183.11 102.94C183.11 102.94 177.11 114 172.19 115.45Z" fill="white" stroke="#263238" stroke-width="1.04742" stroke-linecap="round" stroke-linejoin="round"/>
<path d="M115 179.18C114.966 178.021 115.156 176.867 115.56 175.78C116.18 174.42 119.56 173.64 120.31 173.38C121.06 173.12 121.44 173.38 121.22 174.09C121.045 174.472 120.794 174.814 120.483 175.096C120.172 175.378 119.807 175.593 119.41 175.73C118.893 175.854 118.428 176.137 118.08 176.54C117.89 176.86 118.01 178.91 117.08 179.78C116.15 180.65 114.69 180.41 115 179.18Z" fill="white" stroke="#263238" stroke-width="1.04742" stroke-linecap="round" stroke-linejoin="round"/>
<path d="M191.64 149.11C191.64 149.11 179.64 147.54 174.35 155.92C169.06 164.3 159.17 193.62 140.84 198.34C122.51 203.06 117.27 165.34 106.27 166.39C95.79 167.39 88.47 166.39 82.18 177.91C78.82 184.08 62.02 251.45 54.08 252.14C28.79 254.35 12.51 252.91 12.51 252.91" stroke="#263238" stroke-width="3.14226" stroke-linecap="round" stroke-linejoin="round"/>
<path d="M82.7101 121.66C82.7101 121.66 79.9401 120.55 76.2401 122.76C72.5401 124.97 62.5801 149.17 63.3201 151.76C64.0601 154.35 74.5801 159.15 80.4901 160.81C86.4001 162.47 97.1101 164.51 97.1101 164.51C97.1101 164.51 100.43 169.68 101.54 169.86C103.155 169.838 104.763 169.654 106.34 169.31C106.34 169.31 108.34 170.97 109.11 169.12C109.88 167.27 108.37 164.88 106.71 163.03C105.05 161.18 98.0301 160.26 98.0301 160.26L79.0001 147.14L87.0001 132.37" fill="#263238"/>
<path d="M82.7101 121.66C82.7101 121.66 79.9401 120.55 76.2401 122.76C72.5401 124.97 62.5801 149.17 63.3201 151.76C64.0601 154.35 74.5801 159.15 80.4901 160.81C86.4001 162.47 97.1101 164.51 97.1101 164.51C97.1101 164.51 100.43 169.68 101.54 169.86C103.155 169.838 104.763 169.654 106.34 169.31C106.34 169.31 108.34 170.97 109.11 169.12C109.88 167.27 108.37 164.88 106.71 163.03C105.05 161.18 98.0301 160.26 98.0301 160.26L79.0001 147.14L87.0001 132.37" stroke="#263238" stroke-width="1.04742" stroke-linecap="round" stroke-linejoin="round"/>
<path d="M101.54 169.85C103.154 169.828 104.762 169.644 106.34 169.3C106.34 169.3 108.34 170.96 109.11 169.11C109.88 167.26 108.37 164.87 106.71 163.02C105.05 161.17 98.03 160.25 98.03 160.25L79 147.14L81.84 141.85C74.73 137.42 70.01 137.75 67.46 138.64C64.91 144.76 62.97 150.56 63.31 151.75C64.05 154.34 74.57 159.14 80.48 160.8C86.39 162.46 97.1 164.5 97.1 164.5C97.1 164.5 100.43 169.67 101.54 169.85Z" fill="white" stroke="#263238" stroke-width="1.04742" stroke-linecap="round" stroke-linejoin="round"/>
<path d="M220.49 149.52C219.68 140.79 215.49 133.62 210.49 130.77L210.33 128.99L197.27 130.2C189.92 130.88 184.85 140.97 185.94 152.73C187.03 164.49 193.87 173.46 201.22 172.73L214.28 171.52L214.11 169.74C218.51 166.06 221.3 158.25 220.49 149.52Z" fill="#263238" stroke="#263238" stroke-width="1.04742" stroke-linecap="round" stroke-linejoin="round"/>
<path d="M226.4 149C225.55 139.83 221.4 132.28 216.11 129.28L215.93 127.41L210.34 127.93C202.62 128.65 197.29 139.24 198.43 151.6C199.57 163.96 206.77 173.39 214.49 172.67L220.08 172.15L219.91 170.28C224.53 166.34 227.25 158.14 226.4 149Z" fill="white" stroke="#263238" stroke-width="1.04742" stroke-linecap="round" stroke-linejoin="round"/>
<path d="M232 148.45C233.15 160.81 227.82 171.4 220.09 172.12C212.36 172.84 205.17 163.4 204 151.05C202.83 138.7 208.18 128.05 215.9 127.38C223.62 126.71 230.84 136.1 232 148.45Z" fill="white" stroke="#263238" stroke-width="1.04742" stroke-linecap="round" stroke-linejoin="round"/>
<path d="M238 141.23L216.31 143.23C216.006 143.259 215.699 143.227 215.407 143.137C215.115 143.047 214.844 142.901 214.609 142.706C214.374 142.51 214.179 142.271 214.037 142C213.895 141.73 213.808 141.434 213.78 141.13C213.751 140.826 213.782 140.519 213.872 140.227C213.962 139.935 214.109 139.664 214.304 139.429C214.499 139.194 214.739 138.999 215.01 138.857C215.28 138.715 215.576 138.628 215.88 138.6L237.57 136.6C237.874 136.571 238.181 136.603 238.473 136.693C238.765 136.783 239.036 136.929 239.271 137.124C239.506 137.32 239.7 137.559 239.843 137.83C239.985 138.1 240.072 138.396 240.1 138.7C240.129 139.004 240.097 139.311 240.007 139.603C239.917 139.895 239.771 140.166 239.576 140.401C239.38 140.636 239.141 140.831 238.87 140.973C238.6 141.115 238.304 141.202 238 141.23Z" fill="#737373" stroke="#263238" stroke-width="1.04742" stroke-linecap="round" stroke-linejoin="round"/>
<path d="M239.61 158.42L217.92 160.42C217.616 160.449 217.309 160.417 217.017 160.327C216.725 160.237 216.454 160.091 216.219 159.896C215.984 159.7 215.79 159.461 215.647 159.19C215.505 158.92 215.418 158.624 215.39 158.32C215.361 158.016 215.393 157.709 215.483 157.417C215.573 157.125 215.719 156.854 215.914 156.619C216.11 156.384 216.349 156.189 216.62 156.047C216.89 155.905 217.186 155.818 217.49 155.79L239.18 153.79C239.793 153.737 240.402 153.928 240.876 154.321C241.35 154.714 241.649 155.278 241.71 155.89C241.739 156.194 241.708 156.501 241.618 156.793C241.528 157.085 241.381 157.356 241.186 157.591C240.99 157.826 240.751 158.021 240.48 158.163C240.21 158.305 239.914 158.392 239.61 158.42Z" fill="#737373" stroke="#263238" stroke-width="1.04742" stroke-linecap="round" stroke-linejoin="round"/>
<path d="M170.07 129.33C170.07 129.33 164.85 130.33 162.38 133.33C159.91 136.33 154.84 159.48 156.01 162.14C157.18 164.8 175.93 168.14 181.72 168.62C186.376 168.804 191.039 168.597 195.66 168C195.66 168 200.66 167.87 202.03 167.64C203.4 167.41 205.92 166.06 205.96 165.55C206 165.04 205.75 163.82 203.88 163.67C202.01 163.52 198 162.18 197.49 162.14C198.692 161.824 199.91 161.577 201.14 161.4C201.14 161.4 201.4 160.4 199.34 160.4C197.28 160.4 195.41 160.26 194.63 161.4C194.072 162.288 193.597 163.225 193.21 164.2C193.21 164.2 181.66 165.01 175.39 161.95C169.12 158.89 167.14 157.87 167.14 157.87L171.64 139.87" fill="#C53F3F"/>
<path d="M170.07 129.33C170.07 129.33 164.85 130.33 162.38 133.33C159.91 136.33 154.84 159.48 156.01 162.14C157.18 164.8 175.93 168.14 181.72 168.62C186.376 168.804 191.039 168.597 195.66 168C195.66 168 200.66 167.87 202.03 167.64C203.4 167.41 205.92 166.06 205.96 165.55C206 165.04 205.75 163.82 203.88 163.67C202.01 163.52 198 162.18 197.49 162.14C198.692 161.824 199.91 161.577 201.14 161.4C201.14 161.4 201.4 160.4 199.34 160.4C197.28 160.4 195.41 160.26 194.63 161.4C194.072 162.288 193.597 163.225 193.21 164.2C193.21 164.2 181.66 165.01 175.39 161.95C169.12 158.89 167.14 157.87 167.14 157.87L171.64 139.87" stroke="#263238" stroke-width="1.04742" stroke-linecap="round" stroke-linejoin="round"/>
<path d="M202 167.67C203.39 167.44 205.89 166.09 205.93 165.58C205.97 165.07 205.72 163.85 203.85 163.7C201.98 163.55 197.97 162.21 197.46 162.17C198.662 161.854 199.88 161.607 201.11 161.43C201.11 161.43 201.37 160.43 199.31 160.43C197.25 160.43 195.38 160.29 194.6 161.43C194.042 162.318 193.567 163.255 193.18 164.23C193.18 164.23 181.63 165.04 175.36 161.98C169.09 158.92 167.11 157.9 167.11 157.9L169.85 146.9C166.283 145.432 162.519 144.499 158.68 144.13C156.81 151.67 155.28 160.55 155.98 162.13C157.14 164.79 175.9 168.13 181.69 168.61C186.346 168.794 191.009 168.587 195.63 167.99C195.63 167.99 200.64 167.9 202 167.67Z" fill="white" stroke="#263238" stroke-width="1.04742" stroke-linecap="round" stroke-linejoin="round"/>
<path d="M117.54 177.24C117.54 177.24 113.68 180.13 114.27 182.04C114.86 183.95 118.08 180.04 118.88 178.89C119.68 177.74 119.05 176 117.54 177.24Z" fill="white" stroke="#263238" stroke-width="1.04742" stroke-linecap="round" stroke-linejoin="round"/>
<path d="M118.3 179.83C118.3 179.83 114.45 182.72 115.03 184.63C115.61 186.54 118.85 182.63 119.64 181.48C120.43 180.33 119.81 178.57 118.3 179.83Z" fill="white" stroke="#263238" stroke-width="1.04742" stroke-linecap="round" stroke-linejoin="round"/>
<path d="M120.13 181.51C120.13 181.51 116.28 184.4 116.87 186.31C117.46 188.22 120.68 184.31 121.48 183.16C122.28 182.01 121.65 180.25 120.13 181.51Z" fill="white" stroke="#263238" stroke-width="1.04742" stroke-linecap="round" stroke-linejoin="round"/>
<path d="M121.64 182.87C121.64 182.87 118.31 185.01 118.87 186.59C119.43 188.17 122.18 185.18 122.87 184.26C123.56 183.34 123 181.86 121.64 182.87Z" fill="white" stroke="#263238" stroke-width="1.04742" stroke-linecap="round" stroke-linejoin="round"/>
</svg>
